<svg width="32" height="32" viewBox="0 0 32 32" fill="none" xmlns="http://www.w3.org/2000/svg">
  <!-- Coffee cup -->
  <path d="M6 8h12c1.1 0 2 0.9 2 2v8c0 1.1-0.9 2-2 2H6c-1.1 0-2-0.9-2-2v-8c0-1.1 0.9-2 2-2z" fill="#8B4513"/>
  <path d="M18 10h2c0.6 0 1 0.4 1 1v2c0 0.6-0.4 1-1 1h-2" stroke="#8B4513" stroke-width="1" fill="none"/>
  <path d="M4 12h1" stroke="#F5F5DC" stroke-width="1" stroke-linecap="round"/>
  <path d="M4 14h1" stroke="#F5F5DC" stroke-width="1" stroke-linecap="round"/>
  
  <!-- Steam -->
  <path d="M8 6c0-1 0.5-1.5 1-1.5s1 0.5 1 1.5" stroke="#228B22" stroke-width="0.5" fill="none" opacity="0.7"/>
  <path d="M10 6c0-1 0.5-1.5 1-1.5s1 0.5 1 1.5" stroke="#228B22" stroke-width="0.5" fill="none" opacity="0.5"/>
</svg> 