<svg width="120" height="40" viewBox="0 0 120 40" fill="none" xmlns="http://www.w3.org/2000/svg">
  <!-- Coffee cup -->
  <path d="M8 12h16c2.2 0 4 1.8 4 4v8c0 2.2-1.8 4-4 4H8c-2.2 0-4-1.8-4-4v-8c0-2.2 1.8-4 4-4z" fill="#8B4513"/>
  <path d="M24 16h4c1.1 0 2 0.9 2 2v4c0 1.1-0.9 2-2 2h-4" stroke="#8B4513" stroke-width="2" fill="none"/>
  <path d="M6 20h2" stroke="#F5F5DC" stroke-width="1.5" stroke-linecap="round"/>
  <path d="M6 22h2" stroke="#F5F5DC" stroke-width="1.5" stroke-linecap="round"/>
  
  <!-- Steam -->
  <path d="M10 8c0-2 1-3 2-3s2 1 2 3" stroke="#228B22" stroke-width="1" fill="none" opacity="0.7"/>
  <path d="M14 8c0-2 1-3 2-3s2 1 2 3" stroke="#228B22" stroke-width="1" fill="none" opacity="0.5"/>
  
  <!-- Text -->
  <text x="35" y="18" font-family="Inter, sans-serif" font-size="16" font-weight="bold" fill="#8B4513">kapeta!</text>
  <text x="35" y="28" font-family="Inter, sans-serif" font-size="8" fill="#228B22" font-style="italic">Let's get coffee!</text>
</svg> 